<svg width="512" height="512" viewBox="0 0 512 512" fill="none" xmlns="http://www.w3.org/2000/svg">
  <rect width="512" height="512" rx="48" fill="#F1F5F9"/>
  <rect x="120" y="156" width="272" height="232" rx="28" fill="#E2E8F0"/>
  <path d="M160 208C160 198.059 168.059 190 178 190H334C343.941 190 352 198.059 352 208V336C352 345.941 343.941 354 334 354H178C168.059 354 160 345.941 160 336V208Z" fill="#CBD5E1"/>
  <circle cx="214" cy="242" r="26" fill="#94A3B8"/>
  <path d="M176 330L235 271C241.248 264.752 251.379 264.752 257.627 271L283 296.373L296.686 282.686C302.934 276.438 313.066 276.438 319.314 282.686L369 332.373V336C369 345.941 360.941 354 351 354H178C168.059 354 160 345.941 160 336V330H176Z" fill="#94A3B8"/>
  <path d="M196 156V136C196 119.431 209.431 106 226 106H286C302.569 106 316 119.431 316 136V156" stroke="#94A3B8" stroke-width="22" stroke-linecap="round"/>
</svg>
